<svg id="eYx3k2p4dIt1" xmlns="http://www.w3.org/2000/svg" xmlns:xlink="http://www.w3.org/1999/xlink" viewBox="0 0 1420 1420" shape-rendering="geometricPrecision" text-rendering="geometricPrecision" project-id="38fd731618904c5abaff25430074d7d0" export-id="4156ee623cdf40008392155d7079ff2f" cached="false"><ellipse rx="530.819065" ry="528.975944" transform="translate(714.799408 710)" fill="#fff" stroke-width="0"/><g transform="translate(-416.342377-102.140541)"><path d="M416.34238,812.14054c0-392.12217,317.87783-710,710-710s710,317.87783,710,710-317.87783,710-710,710-710-317.87783-710-710Zm715.529,466.7169c259.57383,0,470-207.38193,470-463.20051s-210.42617-463.20051-470-463.20051-470,207.38193-470,463.20051s210.42617,463.20051,470,463.20051ZM690.81472,815.69987c0-241.19808,197.94074-436.72776,442.11302-436.72776s442.11302,195.52968,442.11302,436.72776-197.94074,436.72776-442.11302,436.72776-442.11302-195.52968-442.11302-436.72776Zm443.92299,387.57982c217.78322,0,394.33141-173.48964,394.33141-387.49996s-176.54819-387.49996-394.33141-387.49996-394.33141,173.48964-394.33141,387.49996s176.54819,387.49996,394.33141,387.49996Z" transform="translate(.000001 0)" fill="#009a44" stroke-width="0"/><path d="M843.2854,927.93384c-22.74063-2.9422-38.10641-40.10757-44.53711-62.11754-12.04218-41.21609-5.20723-101.95861,7.65566-142.92599c15.66499-49.89188,53.95805-112.10728,91.84469-148.1516c34.63581-32.95157,93.59429-63.60929,139.45356-77.11386c40.80541-12.01632,99.25026-14.78759,141.46874-9.58431c35.26686,4.34651,81.42439,19.58322,112.69449,36.45998c20.9546,11.30939,50.94115,28.56335,61.87148,49.71816c3.81054,7.37501,7.03345,21.29604,1.65727,27.6212-9.49436,11.17026-34.84289-.05741-48.61331,4.97182-8.29007,3.0277-20.32271,8.69742-24.30665,16.57272-6.28805,12.42997-.67108,32.66962,1.65727,46.40361c2.43578,14.36768,18.17956,32.33957,14.36302,46.40361-2.05834,7.58506-13.29262,12.65148-19.33484,17.67757-14.37187,11.95493-40.73735,21.16922-49.71816,37.56483-9.37458,17.11449-8.08505,45.56159-5.1002,64.84576c1.36193,8.79904,12.19916,18.65657,11.16333,27.49992-.76994,6.5734-7.48776,14.01874-12.79699,17.97025-8.98252,6.68543-35.33868,12.01231-35.33868,12.01231-10.91279,0-10.83743,6.30123-28.26469,22.89798-5.55783,5.29297-9.69572,17.23376-17.17348,18.96239-8.44742,1.95278-18.8288-7.40237-26.83357-10.73343-21.44707-8.92487-47.87469-29.50339-71.07193-30.73548-13.0098-.691-30.17941,6.4027-41.46125,12.91825-8.26744,4.77466-14.35925,18.47139-23.38425,21.58546-6.31216,2.17801-16.11191.97684-22.18505-1.79879-12.95713-5.92183-21.34712-26.49871-33.87718-33.27758-10.36484-5.60747-26.79364-10.57737-38.37414-8.39434-8.92272,1.68201-19.39631,9.7917-25.18303,16.78869-3.98155,4.81427-4.36718,14.17343-8.09455,19.18707-1.90075,2.55667-5.02098,7.18013-8.18046,6.77136l.00001-.00002ZM945.43192,622.87868c7.22505-8.45667,20.57841-27.52733,12.31387-34.97139-9.47865-8.53762-29.60642,9.00122-38.41927,18.22453-8.96757,9.38524-26.36374,31.17824-16.74686,39.89694c10.82517,9.81414,33.36092-12.04079,42.85226-23.15007v-.00001Zm139.25976-45.5387c14.33312-5.50368,41.32861-22.1431,35.87784-36.49642-5.81113-15.30226-39.08459-9.39328-54.43534-3.7115-14.76799,5.46608-42.94481,22.05799-37.4243,36.80571c5.89858,15.7577,40.27445,9.43357,55.9818,3.40221Zm136.28013-31.41583c12.28283.84643,38.10351,2.13506,39.78748-10.0612c1.58041-11.44624-21.93027-17.68931-33.3849-19.20775-14.63102-1.9395-46.6271-2.15287-47.56204,12.5765-.84408,13.2979,27.86633,15.7764,41.15946,16.69245Zm-98.48399,102.66957c.10918,17.16942,29.22187,30.25248,45.95061,34.11901c15.78989,3.64953,41.10458.98664,53.1046-9.90552c11.89684-10.79851,23.4188-37.85736,14.85828-51.45368-10.39016-16.50228-45.18185-15.41906-64.11073-10.73098-18.23706,4.51673-49.9222,19.18348-49.80276,37.97116v.00001ZM997.7517,744.11295c9.30623,2.41093,23.01119-1.38593,31.496-5.9055c19.42884-10.34909,47.50969-30.65035,51.46222-52.30586c2.28551-12.52208-5.64183-33.3767-17.15407-38.80757-15.84696-7.47576-42.62085,4.72738-56.24286,15.748-16.37023,13.24402-36.75366,41.50112-32.62086,62.14836c1.76389,8.81228,14.3597,16.86873,23.05957,19.12257Zm-87.12674,26.41549c7.0248-13.74651,14.00725-44.18478.38982-51.45665-15.22186-8.12866-39.95273,16.86552-47.55841,32.35532-6.81631,13.88215-10.88438,44.89211,3.11858,51.45665c14.84635,6.95991,36.58866-17.75454,44.05001-32.35532Zm17.39084,104.7938c5.71977,8.13931,19.71339,15.03185,29.6594,14.8297c16.07534-.32672,36.27949-13.84586,46.92383-25.89664c8.75888-9.9162,16.5346-27.718,16.37907-40.94769-.11715-9.96509-5.24525-24.35911-13.05899-30.54476-8.19123-6.48449-24.08161-8.11521-34.30752-5.97615-11.53692,2.4133-25.15134,12.68782-32.75815,21.69121-7.82776,9.26491-14.57167,24.97002-16.37907,36.96359-1.34515,8.92617-1.64874,22.49507,3.54142,29.88074h.00001Zm157.19515-21.894c7.08136,8.07871,22.64493,13.30578,33.38233,12.9602c16.35886-.5265,37.61989-11.70001,49.4844-22.9749c8.69145-8.25951,18.87102-23.35792,18.65483-35.346-.1556-8.62806-7.2113-20.06785-14.33476-24.93857-11.36154-7.76852-32.22487-10.98193-45.3607-6.87283-19.40887,6.07141-43.52016,27.03767-49.28803,46.5389-2.68271,9.07026,1.22713,23.52027,7.46193,30.6332Zm319.45141-228.144c8.43497-6.21524,25.86935,18.38085,32.93391,29.64052c6.75471,10.76581,19.49797,36.6508,11.81746,40.68307-7.74916,4.06831-24.98683-18.43309-31.96527-29.44679-6.87703-10.85367-20.14781-35.45239-12.7861-40.8768Zm-66.56386,42.08767c6.44272-6.17641,20.4806-9.27364,29.00336-6.62422c10.3814,3.22721,20.2785,16.66922,24.52753,26.67593c5.63592,13.27289,7.29767,34.25933,2.86453,47.98086-2.0889,6.46561-8.37368,14.26234-14.32265,17.54524-5.78023,3.18979-15.6876,5.07479-21.84204,2.6855-6.85362-2.66074-12.33191-12.21031-15.93394-18.61944-6.00817-10.69038-12.40808-26.59088-12.71135-38.85018-.23684-9.57387,1.50137-24.16625,8.41456-30.79369Zm111.05673,108.79493c12.7129,3.68812,10.06756,30.61676,7.18108,43.53529-2.69164,12.04652-11.30444,36.63249-23.33851,33.88571-14.94539-3.41129-12.19286-35.78895-7.8543-50.49196c3.06332-10.38135,13.61647-29.9448,24.01173-26.92904Zm-151.93439,10.75213c8.88931-4.59309,24.6682-5.55307,33.34776-.57496c8.75376,5.02066,14.35126,19.45924,16.48223,29.32303c2.66893,12.35395.95217,30.19754-3.64142,41.97218-4.51414,11.571-14.2475,27.10312-25.2983,32.7728-8.85534,4.54328-24.5411,6.1339-33.15611,1.14992-9.46178-5.47386-14.74281-21.51458-17.05719-32.19784-1.50618-6.95259-4.52402-19.89818,2.15041-35.50427c5.40982-12.64919,14.95028-30.62561,27.17262-36.94087v.00001Zm95.83446,171.47178c-7.51886,12.41457-25.58977,26.33806-40.08424,27.08989-5.46117.28327-14.08134-3.49842-16.07774-8.58948-4.87451-12.43054,5.86295-31.91474,14.53604-42.06642c10.40654-12.18064,33.8823-34.11377,47.13201-25.10771c12.15348,8.26094,2.1067,36.10407-5.50608,48.67371l.00001.00001Zm-223.27674,31.18898c1.54723-15.75058,20.88753-31.88581,34.5587-39.85912c15.5272-9.05579,41.25074-16.07123,58.7286-11.87293c7.65939,1.83984,17.38604,9.11822,20.56561,16.32528c2.2389,5.07485.77317,13.28952-1.2721,18.44544-4.69965,11.84736-16.93841,24.94471-26.92611,32.86257-9.05011,7.17458-23.31759,14.31247-34.55871,16.96133-9.41043,2.21748-23.85018,5.04009-32.22652.21202-9.89723-5.7047-19.98627-21.70571-18.86947-33.07459Zm-161.77036,2.32739c3.17367-12.54623,20.25973-23.94584,32.36634-28.5186c11.17976-4.22268,28.49812-3.77913,39.8355,0c14.17173,4.72391,33.8543,16.188,39.8355,29.87663c2.89733,6.63085,1.85496,18.20509-2.48972,23.99184-8.00975,10.66833-27.95614,15.0935-41.19353,16.74902-16.73219,2.0926-42.54163,2.87571-55.67917-7.69549-8.56943-6.89544-15.3723-23.74007-12.67493-34.40339l.00001-.00001ZM895.41962,939.95161c13.83036-1.47287,32.0926,8.49246,43.17143,16.90125c12.10423,9.18707,26.54462,25.78253,30.47181,40.46217c1.17033,4.37462.96592,11.43259-1.84703,14.98143-3.87191,4.88483-13.27531,6.79361-19.49638,7.18288-11.41747.71442-27.29064-2.81029-37.14573-8.61945-10.85327-6.39755-23.44056-19.49532-28.11583-31.1942-3.40551-8.52158-5.05295-22.43577-.8209-30.57853c2.28766-4.40162,8.8499-8.61022,13.78262-9.13553l.00001-.00002Zm-46.01039,68.86574c4.8594-3.20057,25.31378,13.55096,33.31959,22.59342c7.55074,8.52847,20.81697,31.60709,15.06228,35.37354-5.65698,3.70251-22.96837-13.47426-30.80921-22.13699-8.03405-8.87619-21.23531-33.41763-17.57266-35.82997Zm154.57176,98.12119c13.45292,3.56935,43.27045,14.49726,39.28647,24.67854-2.19401,5.60691-33.49576,5.22071-46.59044.332-10.02717-3.74351-28.77319-16.26792-26.7812-23.57188c1.80627-6.62298,24.19278-4.06332,34.08516-1.43866h.00001Zm104.83591-7.49952c-2.39877-14.85749,27.5164-24.03908,42.26822-27.01956c15.80395-3.19305,50.20038-1.73535,52.96903,9.09569c3.97647,15.55604-27.82338,28.07987-43.60582,31.03236-15.70834,2.93863-49.08427,2.66805-51.63143-13.1085v.00001Zm165.97823,6.68246c-7.26792-7.49458,9.03382-23.60437,16.97953-30.37616c10.94191-9.32533,40.23057-22.10784,45.00815-16.45572c7.62104,9.01608-12.85997,25.26881-22.19579,32.49463-10.03433,7.76646-33.87151,20.44227-39.79189,14.33726v-.00001Z" transform="translate(.000001 0)" fill="#2c5796" stroke-width="4.72"/><path d="M492.26355,712.53842l79.22601-10.34934c-19.73984-17.54049-52.16634-40.95458-66.20011-34.97364l6.38106-31.11521l21.27621,17.73017l52.36327-8.97925c-19.89782-17.90187-53.06526-41.57938-68.40159-35.33055l8.51959-30.29488l77.22228,64.41734-7.09568,29.15587-33.16244,5.17334l27.4585,22.68311-6.64891,28.33936-99.15805,17.29857l8.21986-33.75489ZM616.14319,595.71087l-52.40665-89.66098l14.89565-25.85691l104.08237,1.92098-17.11422,29.86256-35.1016-.5239-20.25764,33.35525c-1.56734,12.95074,10.05271,23.62062,21.13082,23.75034l-15.22873,27.15266Zm-15.85628-53.34788l18.86056-32.48208-37.89576-.34927l19.0352,32.83135ZM771.88862,362.10478l15.00903,15.65458-76.82043,72.78574c-13.2701-21.00294-44.32907-53.84102-62.29556-65.36192l25.33783-25.82199c.98689,4.44418,4.81641,12.67494,8.23076,16.46152l40.99241,42.92906c19.4216-20.66431,47.16327-47.75085,49.54595-56.647l.00001.00001Zm122.06841-46.18324L846.19116,294.4269l-10.61464,22.82147l16.85074,18.84098-31.30044,16.52869c-7.98512-25.2656-27.2157-66.44961-41.99405-80.2483l31.27869-16.09664c-.85267,7.63098,9.60248,30.68589,19.20622,45.18033c14.15078-23.70647,29.55032-59.14727,17.55997-64.75238l35.66868-17.74288-23.5759,50.74356l68.54704,28.27789-33.86044,17.94192ZM1058.11981,197.1692c-9.65552-4.31909-48.42877-1.42629-74.85959,3.95363l5.49936,26.255c16.76561-2.17448,43.13164-10.09994,51.17951-17.29637l3.18211,24.06746c-34.21563-2.22013-52.14533,1.11449-52.6031,3.67854-.02155.12071,1.87903,8.9492,5.70173,26.48548c27.97674-4.81052,68.63267-14.93936,73.57077-22.62301l3.31068,21.51945-105.2062,20.04804c1.76878-23.73641-6.34271-68.21289-18.02484-88.8367l103.73478-20.23196l4.51479,22.98044Zm65.59355-28.21112l98.21936,8.32028c0,0,24.79068,4.22777,22.5548,33.62967s-29.49016,27.24744-29.49016,27.24744l23.11789,30.43855-39.10776-1.34854-25.81497-32.55769-23.88848-2.50444c-.76461,10.67387-2.27618,26.47421,2.50444,29.28266l-35.32928-2.65911c7.69041-21.22623,10.69416-66.1813,7.23417-89.84881l-.00001-.00001Zm27.87312,50.78169l42.70541,2.90665c0,0,17.32811,1.11794,18.44606-14.98043s-14.86864-18.44605-14.86864-18.44605l-44.04694-2.90665-2.23589,33.42648Z" fill="#fff" stroke-width="4.72"/><path d="M1473.34355,287.54524c-5.78718-7.09205-15.34589-15.54863-23.76924-19.13134-8.87354-3.77418-22.60895-6.69039-31.88557-4.05816-6.82423,1.93636-15.42314,8.41773-18.39268,14.85989-3.0106,6.53123-1.77299,17.19447.65653,23.96337c3.48694,9.71502,13.09807,20.67702,21.14423,27.1423c5.97096,4.79781,23.04815,10.98574,23.04815,10.98574c6.56083-12.445,16.7115-30.49723,14.24681-35.70083l31.57286,19.27333c-7.70285,1.02967-16.42623,19.57637-25.44103,32.94822c0,0-15.41371-.43779-21.68744-2.29386-12.85095-3.80194-29.19314-12.07523-39.82981-20.22771-10.68824-8.19199-24.75442-20.97463-30.02876-33.36529-3.46029-8.12904-4.70552-20.92494-2.12036-29.37313c1.84547-6.03091,7.72052-13.06316,12.98857-16.5309c8.96575-5.90179,23.85666-9.61714,34.58164-9.18069c16.18757.65875,37.12317,9.522,50.8967,18.05203c11.29085,6.99249,31.83824,30.75848,31.83824,30.75848l-12.51126,21.58806c0,0-8.96861-21.94126-15.30757-29.7095l-.00001-.00001Zm67.99578,68.04169c14.50197-4.86708,35.79581,1.5175,50.20738,8.89772c11.6023,5.94158,23.69394,20.02572,30.02242,31.42534c6.57973,11.85221,13.35447,30.38347,11.22334,43.77101-1.55284,9.75475-8.9883,23.07912-17.67675,27.77775-11.77354,6.36701-32.20619,4.46201-44.61276-.56117-17.38573-7.03913-36.54647-26.42289-45.45451-42.92926-6.17161-11.43584-10.86841-30.07785-7.57575-42.64867c2.4851-9.48768,13.88475-22.38264,23.86663-25.73271v-.00001Zm20.06975,19.4685c-7.02795,4.24626-13.82157,13.9672-16.77127,21.63024-6.10456,15.85905-.44332,28.59623,2.50785,34.95321c3.43045,7.38935,11.78789,16.15874,19.43587,18.96564c5.70831,2.09502,14.71936,1.18193,20.21957-1.41067c5.80662-2.73703,12.42719-9.52665,14.73364-15.51735c4.83339-12.55409,5.05222-32.86328-1.09719-44.82789-3.82182-7.43593-14.12643-14.82452-22.2572-16.77127-4.96963-1.18988-12.39753.33547-16.77128,2.97808l.00001.00001ZM1690.0595,486.38941l16.65468,33.67946c-7.61089-4.77466-44.74071,15.45715-72.29364,27.88116c10.40485,21.78724,30.46398,55.04739,40.56527,64.02984l-19.4676,11.59986c.68215-2.67381-26.30745-55.78253-45.80271-96.15408c21.69903-5.584,61.71334-26.41751,80.34399-41.03625l.00001.00001Zm68.8189,158.16594l19.97781,102.41791-22.69612,4.94655c4.13079-13.32605.34903-51.45312-5.65367-74.84985l-25.48645,4.42722c1.99741,16.72722,9.11807,43.97254,17.58924,53.12668-6.94358.08261-18.78949,1.997-23.69163,3.82895c3.90729-4.264-.48059-34.2332-4.18791-54.20357-12.37408,2.16028-32.19246,7.15851-38.70657,12.55446l-7.04459-35.1817c25.48751,3.18523,70.70429-4.23968,89.89989-17.06665Z" transform="translate(0 0.000001)" fill="#fff" stroke-width="4.72"/><path d="M510.07385,943.15035l39.28612-8.65016l1.80211,7.20846-15.61834,4.0848l3.84451,17.30031l15.37805-3.96465l2.16254,8.04945-39.52641,9.49114-1.68197-7.08832l15.97876-4.0848-4.32508-17.18017-15.4982,3.36395-1.80209-8.53001Zm1054.80241,336.00583l-27.73238-29.14001l5.23556-5.27242l11.57779,11.25046l12.81404-12.2426-11.35063-11.10703l5.76866-6.01604l28.57634,28.9104-5.19493,5.10745-11.76431-11.55887-12.46255,12.59164l10.8988,11.5207-6.36639,5.95632ZM527.58627,1014.00249l37.47176-14.156l2.99774,8.4936-37.11504,13.43136-3.35446-7.76896Zm156.00364,253.41213l28.21174-28.43629l6.25365,6.48225-28.18808,27.62896-6.27731-5.67492Zm366.63872,180.0065l3.3116-39.9194l8.95779.94113-3.81276,39.28601-8.45663-.30774ZM580.86678,1041.09294l13.63838,27.46232-7.23669,2.9689-9.7417-18.92673-7.51502,3.71113l7.70058,16.60728-5.47391,2.31945-7.97892-16.5145-11.31893,4.91724l9.46337,19.57618-6.30891,3.06168-13.36005-27.83343l38.1318-17.34952Zm815.17708,308.32524l26.93483-14.65262l3.2366,7.12099-18.55043,10.44047l3.98869,7.37146l16.30868-8.31431l2.52189,5.38364-16.20559,8.58899l5.33576,11.12776l19.2098-10.18654l3.29473,6.19039-27.31606,14.38832-18.7589-37.45855Zm290.53822-320.93388l8.86763-29.35216l7.30669,2.7922-5.86205,20.46359l8.0178,2.44192l5.7611-17.37557l5.57736,2.0583-5.49473,17.49857l11.61576,4.16792l6.50962-20.74625l6.69412,2.08924-9.3246,29.432-39.6687-13.46976ZM571.74,1120.0477l34.20939-22.38632l13.47055,19.76973c0,0,3.6826,9.78796-2.51967,14.34275s-13.56746,1.06602-13.56746,1.06602l-1.74439,6.00845-11.62926,8.3343-4.07024-5.81463c0,0,10.67856-5.73509,11.53234-10.27251.92322-4.90644-8.04357-12.88909-8.04357-12.88909l-13.56746,8.43121-4.07023-6.58991Zm32.03598,4.41868c2.37708,3.23283,10.64933-.66558,7.70175-5.705-1.96822-2.99513-6.56075-9.98375-6.56075-9.98375l-8.65258,5.89517c0,0,5.25811,6.85551,7.51158,9.79358Zm79.07196,83.23677c5.17992,5.97008.0878,17.73464-11.85235,14.92519c3.42401,11.50117-11.76456,19.92951-18.08582,12.64251-5.16236-6.18956-17.20786-20.63188-17.20786-20.63188l30.64054-24.75826c0,0,11.07976,11.7909,16.5055,17.82243l-.00001.00001Zm-28.88463,17.73464c4.47756,5.61889,13.25708.52677,8.07716-6.32126-1.94905-2.31779-6.49685-7.72598-6.49685-7.72598l-7.81378,6.05787c0,0,4.36342,5.59255,6.23346,7.98936l.00001.00001Zm12.7303-12.46693c3.51181,3.5996,9.30629-2.19488,5.97008-6.32126-1.58031-1.65933-5.26771-5.5311-5.26771-5.5311l-6.32126,5.88228c0,0,3.93323,4.17905,5.61889,5.97008Zm124.10658,92.01142l27.58759,18.09746-3.47804,5.53613-10.25594-6.44211-17.59436,27.86843-7.51292-4.9444l17.72278-27.41894-9.98917-6.49647l3.52006-6.2001Zm545.91787,71.53472l30.17802-13.33718l2.75988,5.92694-10.97898,5.11342l13.84622,29.90808-8.23174,3.62346-13.39904-29.77182-10.87976,4.85989-3.2946-6.32279Zm-437.21291-11.87692c22.40565,10.92907,7.0624,48.86683-16.45212,39.24516-5.47547-2.82771-18.25157-9.42569-18.25157-9.42569l16.88056-37.5314c0,0,12.47619,5.39835,17.82313,7.71193Zm-12.0094,3.44999l-9.89416,21.99995c0,0,6.38805,3.29899,9.12579,4.71285c11.75726,4.81083,20.88277-17.3923,9.67994-22.85683-2.67347-1.15679-8.91157-3.85596-8.91157-3.85596v-.00001Zm777.59511-295.03984c11.29319-22.22435,48.97556-6.26413,38.9715,17.09027-2.91667,5.4286-9.72223,18.09535-9.72223,18.09535l-37.25098-17.49069c0,0,5.6012-12.38645,8.00171-17.69493Zm3.25358,12.0641l21.83559,10.2518c0,0,3.40278-6.33337,4.86112-9.04768c5.00202-11.6772-17.04926-21.16377-22.69585-10.05159-1.20026,2.65424-4.00085,8.84747-4.00085,8.84747h-.00001Zm-572.12837,366.386l1.23674-39.47264l6.80207.41225l16.59293,25.45624h1.64899l-.51531-25.25012l9.17249.41225-.92756,40.9155-9.17249-.51531-16.38681-27.62054-.61837,25.97155-7.83268-.30918ZM1744.0401,976.21507l-38.69967-7.87109l1.55265-6.63532l27.88845-12.06566.27789-1.6254-24.97583-3.74728l1.95213-8.97183l40.174,7.80949-2.05371,8.95446-29.98706,11.49775l25.49589,4.98633-1.62474,7.66855Zm-270.07899,375.58746l-21.82504-32.91331l5.78693-3.59855l28.26063,11.16613l1.34508-.9539-15.02685-20.29847l7.72049-4.96977l22.9119,33.9114-7.78011,4.8857-29.34449-13.05079l14.51944,21.54274-6.56798,4.27882Zm184.17475-180.45595l-32.97204-21.73621l3.91527-5.57753l30.37623-.79417.86404-1.40449-21.77632-12.79163l5.15732-7.59649l34.36298,22.2289-5.2451,7.54248-32.11162-.51543l21.79676,14.13524-4.36752,6.50933ZM946.29463,1380.84699l8.44676,3.65994c0,0-6.36643,17.72787-9.24765,25.46011-3.32505,7.89486,14.17179,13.98372,16.77499,7.53217c2.85182-7.87925,9.50606-26.26417,9.50606-26.26417l8.23205,3.23402c0,0-6.79144,19.20812-9.70206,27.44017-6.16785,16.49904-40.44857,6.46324-33.90821-16.1701c2.96942-7.46765,9.89806-24.89216,9.89806-24.89216v.00002Zm327.35969,13.50217l9.02937-1.79258c0,0,4.8439,18.20289,6.87075,26.2017c1.75423,8.38496,19.60924,3.4441,18.08196-3.34313-2.13462-8.10301-7.1154-27.01005-7.1154-27.01005l8.61056-2.02085c0,0,5.33603,19.66221,7.6229,28.08887c4.30849,17.07916-29.59709,28.31736-37.08738,5.9804-1.80383-7.83131-6.01276-26.10436-6.01276-26.10436Zm-44.69931,28.62615l15.22874-.83887l2.83926,19.93932-5.4204.19359-.64529-5.16228c0,0-3.63624,8.38772-12.32495,9.16305-16.64069,1.48493-21.00295-11.41886-21.81065-20.32649-.73913-8.15137,3.09849-19.69936,16.28764-21.88742c17.69317-2.93527,20.90814,10.87953,20.90814,10.87953l-8.14445.66857c0,0-2.50615-7.21112-10.75797-5.89561-8.38757,1.33715-10.70088,9.11691-10.45407,14.46552.29129,6.31244,4.02459,16.74867,13.85772,15.86344c9.69534-.87281,10.51485-11.852,10.51485-11.852l-9.7855.36468-.29307-5.57503Zm362.40513-229.69241l6.70292-8.01957l42.30503,14.00432-7.8137,7.73709-8.42653-3.60043-10.11184,12.7164l6.58802,7.9669-6.66462,7.43067-22.57928-38.23538Zm18.98718,15.30656l6.16485-6.9268-14.54628-6.23412l8.38143,13.16092Zm-22.78672-28.93145c0-1.933,1.567-3.5,3.5-3.5s3.5,1.567,3.5,3.5-1.567,3.5-3.5,3.5-3.5-1.567-3.5-3.5Zm-7.3619,9.09411c0-1.933,1.567-3.5,3.5-3.5s3.5,1.567,3.5,3.5-1.567,3.5-3.5,3.5-3.5-1.567-3.5-3.5ZM758.87915,1296.41794l-5.70648-5.70648c0,0,2.31213-1.25068,2.31344-2.21062.00446-3.27235-4.80236-6.40645-7.86569-7.55724-1.54653-.58098-4.26197-.83587-5.50085.25705-.8181.72172-.85133,2.51656-.6214,3.58301c1.14055,5.29012,8.84944,9.66706,10.1322,14.9245.62214,2.54986.1811,6.35877-1.02819,8.68825-1.21433,2.3392-4.05206,4.99832-6.54116,5.86479-2.20605.76794-5.54239.2227-7.77187-.47434-3.38964-1.05977-7.67628-3.56341-10.12261-6.13795-2.21799-2.33424-4.64831-6.26026-5.08939-9.44988-.43964-3.17918,2.32622-10.44215,2.32622-10.44215l6.41003,5.94478c0,0-.90439,7.77011,1.03387,10.13198c1.70845,2.08183,5.94011,3.16329,8.58117,2.63638c1.38254-.27583,3.39852-1.60573,3.61857-2.99824.71381-4.51727-6.34888-8.67563-8.16762-12.87176-1.18471-2.73331-3.00767-6.6829-2.4813-9.61505.46064-2.56601,2.57912-6.07754,4.9626-7.13374c4.41768-1.95763,11.84027-.43537,15.97338,2.06775c3.772,2.28442,6.92486,7.89823,8.42609,12.04465.37617,1.039.58566,2.60015.31016,3.67026-.43013,1.67073-3.19117,4.78403-3.19117,4.78403v.00002Z" fill="#fff" stroke-width="4.72"/></g></svg>
